<svg width="24" height="24" viewBox="0 0 24 24" fill="none" xmlns="http://www.w3.org/2000/svg">
<path fill-rule="evenodd" clip-rule="evenodd" d="M21.0249 4.09085C19.8995 5.18147 19.2 6.70905 19.2 8.4C19.2 11.2289 21.1578 13.6006 23.7924 14.234C22.7456 19.7939 17.864 24 12 24C5.37258 24 0 18.6274 0 12C0 5.37258 5.37258 0 12 0C15.5976 0 18.8255 1.58318 21.0249 4.09085ZM16.8389 14.7533C17.5553 15.1693 17.7987 16.0873 17.3827 16.8037C16.9667 17.5201 16.0487 17.7636 15.3323 17.3475C14.6159 16.9315 14.3724 16.0135 14.7884 15.2971C15.2045 14.5807 16.1225 14.3372 16.8389 14.7533ZM12.507 19.7381C13.0617 18.7829 12.737 17.5589 11.7818 17.0042C10.8266 16.4495 9.60264 16.7741 9.04794 17.7293C8.49323 18.6845 8.81788 19.9085 9.77306 20.4632C10.7282 21.0179 11.9523 20.6932 12.507 19.7381ZM8.77792 5.00417C9.73311 5.55887 10.0578 6.78288 9.50305 7.73806C8.94835 8.69325 7.72434 9.0179 6.76916 8.46319C5.81397 7.90849 5.48932 6.68448 6.04403 5.7293C6.59873 4.77411 7.82274 4.44946 8.77792 5.00417ZM14.3827 6.80368C14.7987 6.08729 14.5553 5.16929 13.8389 4.75326C13.1225 4.33723 12.2045 4.58072 11.7884 5.2971C11.3724 6.01349 11.6159 6.9315 12.3323 7.34753C13.0487 7.76356 13.9667 7.52007 14.3827 6.80368ZM13.7779 10.0042C14.7331 10.5589 15.0578 11.7829 14.5031 12.7381C13.9483 13.6932 12.7243 14.0179 11.7692 13.4632C10.814 12.9085 10.4893 11.6845 11.044 10.7293C11.5987 9.77411 12.8227 9.44946 13.7779 10.0042ZM8.73085 14.9695C9.56291 13.5367 9.07593 11.7007 7.64316 10.8686C6.21038 10.0366 4.37437 10.5236 3.54231 11.9563C2.71026 13.3891 3.19723 15.2251 4.63001 16.0572C6.06278 16.8892 7.89879 16.4023 8.73085 14.9695Z" fill="#05052C"/>
</svg>
