<svg width="147" height="32" viewBox="0 0 147 32" fill="none" xmlns="http://www.w3.org/2000/svg">
<circle cx="16" cy="16" r="16" fill="black"/>
<path fill-rule="evenodd" clip-rule="evenodd" d="M16 9.1875C21.0887 9.1875 25.2139 11.1519 25.2139 13.5751C25.2139 15.9983 21.0887 17.9626 16 17.9626C10.9113 17.9626 6.78613 15.9983 6.78613 13.5751C6.78613 11.1519 10.9113 9.1875 16 9.1875ZM25.2139 18.4599C25.2139 17.9361 25.0212 17.4338 24.6677 16.9681C23.3856 18.6569 19.9888 19.8639 16 19.8639C12.0112 19.8639 8.61443 18.6569 7.33238 16.9681C6.97886 17.4338 6.78613 17.9361 6.78613 18.4599C6.78613 20.8831 10.9113 22.8475 16 22.8475C21.0887 22.8475 25.2139 20.8831 25.2139 18.4599Z" fill="white"/>
<path d="M49.552 17.824C51.496 17.824 52.72 16.672 53.032 14.968H58C57.712 19.312 54.376 22.336 49.624 22.336C44.464 22.336 40.816 18.736 40.816 13.84C40.816 8.944 44.464 5.344 49.624 5.344C54.376 5.344 57.712 8.368 58 12.712H53.032C52.72 11.008 51.496 9.856 49.552 9.856C47.2 9.856 45.736 11.608 45.736 13.84C45.736 16.072 47.2 17.824 49.552 17.824ZM68.5643 10V14.416C66.5483 14.44 65.4443 14.92 64.6043 15.616V22H59.9723V10.192H64.6043V11.392C65.6363 10.552 66.8123 10 68.5643 10ZM77.9671 10.192H82.6231V22H77.9671V21.28C77.0551 21.976 76.0951 22.336 74.8951 22.336C72.0631 22.336 70.0471 20.488 70.0471 17.224V10.192H74.7031V16.192C74.7031 17.632 75.4471 18.16 76.3591 18.16C76.9351 18.16 77.4391 17.92 77.9671 17.392V10.192ZM99.8853 9.856C102.837 9.856 104.637 11.584 104.637 14.896V22H99.9813V15.856C99.9813 14.44 99.3093 14.008 98.4693 14.008C97.9413 14.008 97.5093 14.176 97.1013 14.608V14.824V22H92.4453V15.784C92.4453 14.392 91.7733 14.008 91.0053 14.008C90.4293 14.008 89.9973 14.2 89.5653 14.656V22H84.9333V10.192H89.5653V10.864C90.4533 10.192 91.3413 9.856 92.5653 9.856C94.0293 9.856 95.2293 10.336 96.0213 11.272C97.1973 10.288 98.4213 9.856 99.8853 9.856ZM114.504 9.856C117.648 9.856 120.36 12.424 120.36 16.048C120.36 19.672 117.648 22.216 114.504 22.216C113.232 22.216 112.272 21.904 111.432 21.4V27.544H106.8V10.192H111.432V10.672C112.272 10.168 113.232 9.856 114.504 9.856ZM113.424 18.592C114.792 18.592 115.896 17.536 115.896 16.048C115.896 14.536 114.792 13.504 113.424 13.504C112.776 13.504 112.104 13.672 111.432 14.272V17.8C112.104 18.424 112.776 18.592 113.424 18.592ZM127.888 9.856C132.136 9.856 134.728 12.688 134.176 16.984H125.656C125.92 18.088 126.688 18.928 128.08 18.928C128.944 18.928 129.4 18.736 129.712 18.352H134.08C133.48 20.728 131.224 22.336 128.272 22.336C124.288 22.336 121.648 19.72 121.648 16.072C121.648 12.4 124.144 9.856 127.888 9.856ZM128.008 12.904C126.832 12.904 126.064 13.504 125.728 14.68H130.192C130 13.456 129.256 12.904 128.008 12.904ZM145.626 17.584L146.082 21.688C144.714 22.288 143.058 22.336 142.554 22.336C139.314 22.336 137.202 20.104 137.202 16.744V14.176H135.114V10.192H137.202V6.4H141.858V10.192H145.578V14.176H141.858V16.528C141.858 17.56 142.362 18.064 143.49 18.064C144.21 18.064 144.834 17.848 145.626 17.584Z" fill="#1F050D"/>
</svg>
