<svg width="16" height="16" viewBox="0 0 24 24" fill="none" xmlns="http://www.w3.org/2000/svg">
<path d="M7.99905 13.3559V16.5289C8.66655 16.7648 9.22915 17.2291 9.58741 17.8397C9.94568 18.4503 10.0765 19.168 9.95686 19.8657C9.83719 20.5635 9.47468 21.1965 8.93342 21.6528C8.39217 22.1091 7.70701 22.3594 6.99905 22.3594C6.2911 22.3594 5.60594 22.1091 5.06468 21.6528C4.52342 21.1965 4.16092 20.5635 4.04124 19.8657C3.92157 19.168 4.05243 18.4503 4.41069 17.8397C4.76896 17.2291 5.33156 16.7648 5.99905 16.5289V8.18693C5.33156 7.95103 4.76896 7.48674 4.41069 6.87613C4.05243 6.26552 3.92157 5.54791 4.04124 4.85014C4.16092 4.15238 4.52342 3.51939 5.06468 3.06306C5.60594 2.60673 6.2911 2.35645 6.99905 2.35645C7.70701 2.35645 8.39217 2.60673 8.93342 3.06306C9.47468 3.51939 9.83719 4.15238 9.95686 4.85014C10.0765 5.54791 9.94568 6.26552 9.58741 6.87613C9.22915 7.48674 8.66655 7.95103 7.99905 8.18693V10.5269C8.31105 10.4169 8.64605 10.3569 8.99605 10.3559L15.0331 10.3499C15.2981 10.3497 15.5522 10.2442 15.7395 10.0567C15.9268 9.86918 16.0321 9.61498 16.0321 9.34993V8.19893C15.3597 7.96935 14.7906 7.50868 14.426 6.89888C14.0615 6.28908 13.925 5.56971 14.0411 4.86878C14.1571 4.16785 14.5181 3.53082 15.0597 3.07105C15.6014 2.61127 16.2886 2.35858 16.9991 2.35793C17.7039 2.35764 18.3864 2.60557 18.9268 3.05822C19.4671 3.51088 19.8308 4.13935 19.9541 4.83339C20.0773 5.52743 19.9523 6.2427 19.6008 6.85373C19.2493 7.46475 18.6939 7.93251 18.0321 8.17493V9.34993C18.0321 10.1451 17.7164 10.9077 17.1544 11.4702C16.5925 12.0327 15.8302 12.3491 15.0351 12.3499L8.99805 12.3559C8.73301 12.3562 8.47891 12.4617 8.29159 12.6492C8.10427 12.8367 7.99905 13.0909 7.99905 13.3559Z" fill="#05052C"/>
</svg>
